<?xml version="1.0" encoding="UTF-8" standalone="no"?>
<!DOCTYPE svg PUBLIC "-//W3C//DTD SVG 1.1//EN"
 "http://www.w3.org/Graphics/SVG/1.1/DTD/svg11.dtd">
<!-- Generated by graphviz version 12.1.2 (20240928.0832)
 -->
<!-- Title: rikako Pages: 1 -->
<svg width="796pt" height="284pt"
 viewBox="0.00 0.00 795.99 284.00" xmlns="http://www.w3.org/2000/svg" xmlns:xlink="http://www.w3.org/1999/xlink">
<g id="graph0" class="graph" transform="scale(1 1) rotate(0) translate(4 280)">
<title>rikako</title>
<polygon fill="white" stroke="none" points="-4,4 -4,-280 791.99,-280 791.99,4 -4,4"/>
<!-- public.schema_migrations -->
<g id="node1" class="node">
<title>public.schema_migrations</title>
<polygon fill="#efefef" stroke="none" points="43.2,-151 43.2,-186.6 371.15,-186.6 371.15,-151 43.2,-151"/>
<polygon fill="none" stroke="black" points="43.2,-151 43.2,-186.6 371.15,-186.6 371.15,-151 43.2,-151"/>
<text text-anchor="start" x="50.2" y="-164.4" font-family="Arial Bold" font-size="18.00">public.schema_migrations</text>
<text text-anchor="start" x="239.66" y="-164.4" font-family="Arial" font-size="14.00">    </text>
<text text-anchor="start" x="270.77" y="-164.4" font-family="Arial" font-size="14.00" fill="#666666">[BASE TABLE]</text>
<polygon fill="none" stroke="black" points="43.2,-120.2 43.2,-151 371.15,-151 371.15,-120.2 43.2,-120.2"/>
<text text-anchor="start" x="50.2" y="-132.4" font-family="Arial" font-size="14.00">version </text>
<text text-anchor="start" x="99.22" y="-132.4" font-family="Arial" font-size="14.00" fill="#666666">[bigint]</text>
<polygon fill="none" stroke="black" points="43.2,-89.4 43.2,-120.2 371.15,-120.2 371.15,-89.4 43.2,-89.4"/>
<text text-anchor="start" x="50.2" y="-101.6" font-family="Arial" font-size="14.00">dirty </text>
<text text-anchor="start" x="80.54" y="-101.6" font-family="Arial" font-size="14.00" fill="#666666">[boolean]</text>
</g>
<!-- public.questions -->
<g id="node2" class="node">
<title>public.questions</title>
<polygon fill="#efefef" stroke="none" points="475.56,-197.2 475.56,-232.8 744.79,-232.8 744.79,-197.2 475.56,-197.2"/>
<polygon fill="none" stroke="black" points="475.56,-197.2 475.56,-232.8 744.79,-232.8 744.79,-197.2 475.56,-197.2"/>
<text text-anchor="start" x="489.18" y="-210.6" font-family="Arial Bold" font-size="18.00">public.questions</text>
<text text-anchor="start" x="606.67" y="-210.6" font-family="Arial" font-size="14.00">    </text>
<text text-anchor="start" x="637.79" y="-210.6" font-family="Arial" font-size="14.00" fill="#666666">[BASE TABLE]</text>
<polygon fill="none" stroke="black" points="475.56,-166.4 475.56,-197.2 744.79,-197.2 744.79,-166.4 475.56,-166.4"/>
<text text-anchor="start" x="482.56" y="-178.6" font-family="Arial" font-size="14.00">id </text>
<text text-anchor="start" x="497.34" y="-178.6" font-family="Arial" font-size="14.00" fill="#666666">[bigint]</text>
<polygon fill="none" stroke="black" points="475.56,-135.6 475.56,-166.4 744.79,-166.4 744.79,-135.6 475.56,-135.6"/>
<text text-anchor="start" x="482.56" y="-147.8" font-family="Arial" font-size="14.00">type </text>
<text text-anchor="start" x="512.91" y="-147.8" font-family="Arial" font-size="14.00" fill="#666666">[varchar(50)]</text>
<polygon fill="none" stroke="black" points="475.56,-104.8 475.56,-135.6 744.79,-135.6 744.79,-104.8 475.56,-104.8"/>
<text text-anchor="start" x="482.56" y="-117" font-family="Arial" font-size="14.00">text </text>
<text text-anchor="start" x="509.01" y="-117" font-family="Arial" font-size="14.00" fill="#666666">[text]</text>
<polygon fill="none" stroke="black" points="475.56,-74 475.56,-104.8 744.79,-104.8 744.79,-74 475.56,-74"/>
<text text-anchor="start" x="482.56" y="-86.2" font-family="Arial" font-size="14.00">explanation </text>
<text text-anchor="start" x="558.06" y="-86.2" font-family="Arial" font-size="14.00" fill="#666666">[text]</text>
<polygon fill="none" stroke="black" points="475.56,-43.2 475.56,-74 744.79,-74 744.79,-43.2 475.56,-43.2"/>
<text text-anchor="start" x="482.56" y="-55.4" font-family="Arial" font-size="14.00">created_at </text>
<text text-anchor="start" x="552.6" y="-55.4" font-family="Arial" font-size="14.00" fill="#666666">[timestamp without time zone]</text>
</g>
</g>
</svg>
